<svg width="80" height="80" viewBox="0 0 80 80" fill="none" xmlns="http://www.w3.org/2000/svg">
<g clip-path="url(#clip0_1_14)">
<path d="M29.247 38.3592C29.6074 36.0186 24.0158 33.2155 16.7582 32.0984C9.50045 30.9813 3.32487 31.9733 2.96461 34.3139C2.60435 36.6546 8.19584 39.4574 15.4536 40.5746C22.7112 41.6917 28.8869 40.6997 29.247 38.3592Z" fill="#3B71FE"/>
<path d="M31.8528 32.7832C33.4211 31.0088 30.232 25.6282 24.7298 20.7653C19.2275 15.9024 13.4957 13.3988 11.9274 15.1733C10.3591 16.9478 13.5482 22.3285 19.0506 27.1914C24.5528 32.0542 30.2846 34.5578 31.8528 32.7832Z" fill="#3B71FE"/>
<path d="M37.0422 29.5245C39.321 28.8797 39.5474 22.629 37.548 15.5633C35.5486 8.49752 32.0805 3.29233 29.8018 3.93715C27.523 4.58197 27.2966 10.8326 29.296 17.8984C31.2954 24.964 34.7635 30.1693 37.0422 29.5245Z" fill="#3B71FE"/>
<path d="M51.1334 18.1182C53.2718 11.0933 53.1688 4.83939 50.9032 4.14977C48.6376 3.46014 45.0675 8.59592 42.9291 15.6209C40.7909 22.6458 40.8939 28.8997 43.1595 29.5893C45.4251 30.2789 48.9952 25.1432 51.1334 18.1182Z" fill="#3B71FE"/>
<path d="M44.1737 53.9091C41.9249 54.6519 41.9692 60.9065 44.2723 67.879C46.5755 74.8517 50.2657 79.9019 52.5144 79.1591C54.7631 78.4163 54.7187 72.1618 52.4155 65.1892C50.1124 58.2166 46.4222 53.1663 44.1737 53.9091Z" fill="#3B71FE"/>
<path d="M38.0225 54.122C35.7292 53.5314 32.3856 58.8174 30.5544 65.9286C28.7232 73.0398 29.0979 79.2833 31.3913 79.8738C33.6847 80.4644 37.0283 75.1784 38.8595 68.0671C40.6907 60.9559 40.3159 54.7124 38.0225 54.122Z" fill="#3B71FE"/>
<path d="M32.7614 50.9804C31.1515 49.2436 25.4806 51.8826 20.0953 56.8746C14.71 61.8666 11.6495 67.3214 13.2594 69.0582C14.8694 70.795 20.5401 68.156 25.9255 63.164C31.3108 58.172 34.3714 52.7171 32.7614 50.9804Z" fill="#3B71FE"/>
<path d="M16.1973 43.6119C8.96784 44.8996 3.44389 47.8335 3.85921 50.165C4.27451 52.4966 10.4717 53.3427 17.7012 52.055C24.9305 50.7672 30.4544 47.8333 30.0391 45.5018C29.6238 43.1703 23.4266 42.3241 16.1973 43.6119Z" fill="#3B71FE"/>
<path d="M43.84 48.896C43.84 49.2 43.728 49.464 43.504 49.688C43.296 49.896 43.04 50 42.736 50H42.088C41.784 50 41.52 49.896 41.296 49.688C41.088 49.464 40.984 49.2 40.984 48.896V34.88C40.984 34.56 41.088 34.296 41.296 34.088C41.52 33.88 41.784 33.776 42.088 33.776H42.736C43.04 33.776 43.296 33.88 43.504 34.088C43.728 34.296 43.84 34.56 43.84 34.88V48.896ZM56.7801 48.896C56.7801 49.2 56.6681 49.464 56.4441 49.688C56.2361 49.896 55.9801 50 55.6761 50H49.0041C48.4281 50 47.8921 49.856 47.3961 49.568C46.9161 49.28 46.5321 48.896 46.2441 48.416C45.9561 47.936 45.8121 47.408 45.8121 46.832V44.648C45.8121 43.992 46.0041 43.384 46.3881 42.824C46.7721 42.264 47.2841 41.872 47.9241 41.648L53.6841 39.488C53.8441 39.44 53.9241 39.32 53.9241 39.128V36.968C53.9241 36.744 53.8201 36.632 53.6121 36.632H49.0041C48.9241 36.632 48.8441 36.664 48.7641 36.728C48.7001 36.792 48.6681 36.872 48.6681 36.968V37.616C48.6681 37.92 48.5561 38.176 48.3321 38.384C48.1241 38.592 47.8681 38.696 47.5641 38.696H46.9161C46.6121 38.696 46.3481 38.592 46.1241 38.384C45.9161 38.176 45.8121 37.92 45.8121 37.616V36.968C45.8121 36.376 45.9561 35.84 46.2441 35.36C46.5321 34.88 46.9161 34.496 47.3961 34.208C47.8921 33.92 48.4281 33.776 49.0041 33.776H53.6121C54.1881 33.776 54.7161 33.92 55.1961 34.208C55.6761 34.496 56.0601 34.88 56.3481 35.36C56.6361 35.84 56.7801 36.376 56.7801 36.968V39.128C56.7801 39.8 56.5881 40.416 56.2041 40.976C55.8201 41.536 55.3161 41.928 54.6921 42.152L48.9081 44.312C48.7481 44.36 48.6681 44.472 48.6681 44.648V46.832C48.6681 46.912 48.7001 46.992 48.7641 47.072C48.8441 47.136 48.9241 47.168 49.0041 47.168H55.6761C55.9801 47.168 56.2361 47.272 56.4441 47.48C56.6681 47.688 56.7801 47.952 56.7801 48.272V48.896ZM61.6056 48.896C61.6056 49.2 61.4936 49.464 61.2696 49.688C61.0616 49.896 60.8056 50 60.5016 50H59.8536C59.5496 50 59.2856 49.896 59.0616 49.688C58.8536 49.464 58.7496 49.2 58.7496 48.896V34.88C58.7496 34.56 58.8536 34.296 59.0616 34.088C59.2856 33.88 59.5496 33.776 59.8536 33.776H60.5016C60.8056 33.776 61.0616 33.88 61.2696 34.088C61.4936 34.296 61.6056 34.56 61.6056 34.88V48.896Z" fill="#3B71FE"/>
</g>
<defs>
<clipPath id="clip0_1_14">
<rect width="80" height="80" fill="white"/>
</clipPath>
</defs>
</svg>
